<svg width="24" height="24" viewBox="0 0 24 24" fill="none" xmlns="http://www.w3.org/2000/svg">
<path d="M17.8594 14.0161C17.6094 13.3599 17.4844 12.688 17.4844 12.0005C17.4844 11.313 17.6094 10.6411 17.8594 9.98486H19.5L21 8.01611L19.0313 6.00049C18.4688 6.43799 17.9063 7.04736 17.3438 7.82861C16.8125 8.60986 16.4531 9.32861 16.2656 9.98486C16.0781 10.6411 15.9844 11.313 15.9844 12.0005C15.9844 12.688 16.0781 13.3599 16.2656 14.0161C16.4531 14.6724 16.8125 15.3911 17.3438 16.1724C17.9063 16.9536 18.4688 17.563 19.0313 18.0005L21 15.9849L19.5 14.0161H17.8594ZM14.0156 18.0005V17.0161C14.0156 16.1099 13.3281 15.3755 11.9531 14.813C10.5781 14.2192 9.26563 13.9224 8.01563 13.9224C6.76563 13.9224 5.45313 14.2192 4.07813 14.813C2.70313 15.3755 2.01563 16.1099 2.01563 17.0161V18.0005H14.0156ZM10.125 6.89111C9.53125 6.29736 8.82813 6.00049 8.01563 6.00049C7.20313 6.00049 6.5 6.29736 5.90625 6.89111C5.3125 7.48486 5.01563 8.18799 5.01563 9.00049C5.01563 9.81299 5.3125 10.5161 5.90625 11.1099C6.5 11.7036 7.20313 12.0005 8.01563 12.0005C8.82813 12.0005 9.53125 11.7036 10.125 11.1099C10.7188 10.5161 11.0156 9.81299 11.0156 9.00049C11.0156 8.18799 10.7188 7.48486 10.125 6.89111ZM21.9844 3.00049C22.5156 3.00049 22.9844 3.20361 23.3906 3.60986C23.7969 4.01611 24 4.48486 24 5.01611V18.9849C24 19.5161 23.7969 19.9849 23.3906 20.3911C22.9844 20.7974 22.5156 21.0005 21.9844 21.0005H2.01563C1.48438 21.0005 1.01563 20.7974 0.609375 20.3911C0.203125 19.9849 0 19.5161 0 18.9849V5.01611C0 4.48486 0.203125 4.01611 0.609375 3.60986C1.01563 3.20361 1.48438 3.00049 2.01563 3.00049H21.9844Z" fill="white"/>
</svg>
