<svg width="24" height="24" viewBox="0 0 24 24" fill="none" xmlns="http://www.w3.org/2000/svg">
    <path
        d="M17.8594 14.0156C17.6094 13.3594 17.4844 12.6875 17.4844 12C17.4844 11.3125 17.6094 10.6406 17.8594 9.98438H19.5L21 8.01563L19.0313 6C18.4688 6.4375 17.9063 7.04688 17.3438 7.82813C16.8125 8.60938 16.4531 9.32813 16.2656 9.98438C16.0781 10.6406 15.9844 11.3125 15.9844 12C15.9844 12.6875 16.0781 13.3594 16.2656 14.0156C16.4531 14.6719 16.8125 15.3906 17.3438 16.1719C17.9063 16.9531 18.4688 17.5625 19.0313 18L21 15.9844L19.5 14.0156H17.8594ZM14.0156 18V17.0156C14.0156 16.1094 13.3281 15.375 11.9531 14.8125C10.5781 14.2188 9.26563 13.9219 8.01563 13.9219C6.76563 13.9219 5.45313 14.2188 4.07813 14.8125C2.70313 15.375 2.01563 16.1094 2.01563 17.0156V18H14.0156ZM10.125 6.89063C9.53125 6.29688 8.82813 6 8.01563 6C7.20313 6 6.5 6.29688 5.90625 6.89063C5.3125 7.48438 5.01563 8.1875 5.01563 9C5.01563 9.8125 5.3125 10.5156 5.90625 11.1094C6.5 11.7031 7.20313 12 8.01563 12C8.82813 12 9.53125 11.7031 10.125 11.1094C10.7188 10.5156 11.0156 9.8125 11.0156 9C11.0156 8.1875 10.7188 7.48438 10.125 6.89063ZM21.9844 3C22.5156 3 22.9844 3.20313 23.3906 3.60938C23.7969 4.01563 24 4.48438 24 5.01563V18.9844C24 19.5156 23.7969 19.9844 23.3906 20.3906C22.9844 20.7969 22.5156 21 21.9844 21H2.01563C1.48438 21 1.01563 20.7969 0.609375 20.3906C0.203125 19.9844 0 19.5156 0 18.9844V5.01563C0 4.48438 0.203125 4.01563 0.609375 3.60938C1.01563 3.20313 1.48438 3 2.01563 3H21.9844Z"
        fill="white" fill-opacity="0.65" />
</svg>