<svg width="24" height="24" viewBox="0 0 24 24" fill="none" xmlns="http://www.w3.org/2000/svg">
    <path
        d="M10.4211 0.66383C10.8772 0.221277 11.4035 0 12 0C12.5965 0 13.1228 0.221277 13.5789 0.66383C14.0351 1.10638 14.2632 1.61702 14.2632 2.19574C14.2632 2.77447 14.0351 3.28511 13.5789 3.72766C13.1228 4.17021 12.5965 4.39149 12 4.39149C11.4035 4.39149 10.8772 4.17021 10.4211 3.72766C9.96491 3.28511 9.73684 2.77447 9.73684 2.19574C9.73684 1.61702 9.96491 1.10638 10.4211 0.66383ZM10.4211 7.2C10.8772 6.75745 11.4035 6.53617 12 6.53617C12.5965 6.53617 13.1228 6.75745 13.5789 7.2C14.0351 7.64255 14.2632 8.15319 14.2632 8.73191C14.2632 9.31064 14.0351 9.82128 13.5789 10.2638C13.1228 10.7064 12.5965 10.9277 12 10.9277C11.4035 10.9277 10.8772 10.7064 10.4211 10.2638C9.96491 9.82128 9.73684 9.31064 9.73684 8.73191C9.73684 8.15319 9.96491 7.64255 10.4211 7.2ZM17.1579 7.2C17.614 6.75745 18.1404 6.53617 18.7368 6.53617C19.3333 6.53617 19.8596 6.75745 20.3158 7.2C20.7719 7.64255 21 8.15319 21 8.73191C21 9.31064 20.7719 9.82128 20.3158 10.2638C19.8596 10.7064 19.3333 10.9277 18.7368 10.9277C18.1404 10.9277 17.614 10.7064 17.1579 10.2638C16.7018 9.82128 16.4737 9.31064 16.4737 8.73191C16.4737 8.15319 16.7018 7.64255 17.1579 7.2ZM17.1579 13.7362C17.614 13.2936 18.1404 13.0723 18.7368 13.0723C19.3333 13.0723 19.8596 13.2936 20.3158 13.7362C20.7719 14.1787 21 14.6894 21 15.2681C21 15.8468 20.7719 16.3574 20.3158 16.8C19.8596 17.2426 19.3333 17.4638 18.7368 17.4638C18.1404 17.4638 17.614 17.2426 17.1579 16.8C16.7018 16.3574 16.4737 15.8468 16.4737 15.2681C16.4737 14.6894 16.7018 14.1787 17.1579 13.7362ZM10.4211 13.7362C10.8772 13.2936 11.4035 13.0723 12 13.0723C12.5965 13.0723 13.1228 13.2936 13.5789 13.7362C14.0351 14.1787 14.2632 14.6894 14.2632 15.2681C14.2632 15.8468 14.0351 16.3574 13.5789 16.8C13.1228 17.2426 12.5965 17.4638 12 17.4638C11.4035 17.4638 10.8772 17.2426 10.4211 16.8C9.96491 16.3574 9.73684 15.8468 9.73684 15.2681C9.73684 14.6894 9.96491 14.1787 10.4211 13.7362ZM20.3158 3.72766C19.8596 4.17021 19.3333 4.39149 18.7368 4.39149C18.1404 4.39149 17.614 4.17021 17.1579 3.72766C16.7018 3.28511 16.4737 2.77447 16.4737 2.19574C16.4737 1.61702 16.7018 1.10638 17.1579 0.66383C17.614 0.221277 18.1404 0 18.7368 0C19.3333 0 19.8596 0.221277 20.3158 0.66383C20.7719 1.10638 21 1.61702 21 2.19574C21 2.77447 20.7719 3.28511 20.3158 3.72766ZM3.68421 13.7362C4.14035 13.2936 4.66667 13.0723 5.26316 13.0723C5.85965 13.0723 6.38597 13.2936 6.84211 13.7362C7.29825 14.1787 7.52632 14.6894 7.52632 15.2681C7.52632 15.8468 7.29825 16.3574 6.84211 16.8C6.38597 17.2426 5.85965 17.4638 5.26316 17.4638C4.66667 17.4638 4.14035 17.2426 3.68421 16.8C3.22807 16.3574 3 15.8468 3 15.2681C3 14.6894 3.22807 14.1787 3.68421 13.7362ZM3.68421 7.2C4.14035 6.75745 4.66667 6.53617 5.26316 6.53617C5.85965 6.53617 6.38597 6.75745 6.84211 7.2C7.29825 7.64255 7.52632 8.15319 7.52632 8.73191C7.52632 9.31064 7.29825 9.82128 6.84211 10.2638C6.38597 10.7064 5.85965 10.9277 5.26316 10.9277C4.66667 10.9277 4.14035 10.7064 3.68421 10.2638C3.22807 9.82128 3 9.31064 3 8.73191C3 8.15319 3.22807 7.64255 3.68421 7.2ZM3.68421 0.66383C4.14035 0.221277 4.66667 0 5.26316 0C5.85965 0 6.38597 0.221277 6.84211 0.66383C7.29825 1.10638 7.52632 1.61702 7.52632 2.19574C7.52632 2.77447 7.29825 3.28511 6.84211 3.72766C6.38597 4.17021 5.85965 4.39149 5.26316 4.39149C4.66667 4.39149 4.14035 4.17021 3.68421 3.72766C3.22807 3.28511 3 2.77447 3 2.19574C3 1.61702 3.22807 1.10638 3.68421 0.66383ZM10.4211 20.2723C10.8772 19.8298 11.4035 19.6085 12 19.6085C12.5965 19.6085 13.1228 19.8298 13.5789 20.2723C14.0351 20.7149 14.2632 21.2255 14.2632 21.8043C14.2632 22.383 14.0351 22.8936 13.5789 23.3362C13.1228 23.7787 12.5965 24 12 24C11.4035 24 10.8772 23.7787 10.4211 23.3362C9.96491 22.8936 9.73684 22.383 9.73684 21.8043C9.73684 21.2255 9.96491 20.7149 10.4211 20.2723Z"
        fill="white" fill-opacity="0.65" />
</svg>