<svg width="24" height="24" viewBox="0 0 24 24" fill="none" xmlns="http://www.w3.org/2000/svg">
    <path
        d="M12.0647 7.57292H13.7076V12.2604L17.558 14.6042L16.7366 15.9583L12.0647 13.0938V7.57292ZM6.16071 4.91667C8.11161 2.97222 10.439 2 13.1429 2C15.8467 2 18.157 2.97222 20.0737 4.91667C22.0246 6.86111 23 9.22222 23 12C23 14.7778 22.0246 17.1389 20.0737 19.0833C18.157 21.0278 15.8467 22 13.1429 22C12.0134 22 10.7641 21.7222 9.39509 21.1667C8.06027 20.5764 6.99926 19.8819 6.21205 19.0833L7.75223 17.4688C9.25818 18.9965 11.0551 19.7604 13.1429 19.7604C15.2649 19.7604 17.0789 19.0139 18.5848 17.5208C20.0908 15.9931 20.8438 14.1528 20.8438 12C20.8438 9.84722 20.0908 8.02431 18.5848 6.53125C17.0789 5.00347 15.2649 4.23958 13.1429 4.23958C11.0208 4.23958 9.20685 5.00347 7.70089 6.53125C6.22917 8.02431 5.4933 9.84722 5.4933 12H8.77902L4.36384 16.4792L4.26116 16.3229L0 12H3.28571C3.28571 9.22222 4.24405 6.86111 6.16071 4.91667Z"
        fill="white" fill-opacity="0.65" />
</svg>