<svg width="64" height="64" viewBox="0 0 64 64" fill="none" xmlns="http://www.w3.org/2000/svg">
    <g clip-path="url(#clip0_5026_72706)">
        <path d="M29.657 57.4639C29.7181 57.4639 29.802 57.4751 29.8948 57.4796L29.657 57.4639Z"
            fill="url(#paint0_linear_5026_72706)" />
        <path
            d="M57.5158 25.063V25.1303C56.0947 19.4828 52.8112 14.4676 48.1866 10.8811C43.562 7.29462 37.8613 5.34226 31.9895 5.33401C26.1178 5.32576 20.4116 7.26209 15.7767 10.8356C11.1419 14.4091 7.84404 19.415 6.40682 25.0585C4.69804 25.0585 3.05925 25.7314 1.85096 26.9291C0.642676 28.1269 -0.0361328 29.7514 -0.0361328 31.4453C-0.0361328 33.1392 0.642676 34.7637 1.85096 35.9614C3.05925 37.1592 4.69804 37.8321 6.40682 37.8321C7.74693 43.0919 10.7053 47.8079 14.8714 51.3257C19.0376 54.8435 24.205 56.9888 29.6567 57.4638C29.9093 57.8267 30.2452 58.125 30.6368 58.3342C31.0284 58.5433 31.4645 58.6573 31.9092 58.6667C32.3539 58.6761 32.7946 58.5807 33.1948 58.3884C33.5951 58.196 33.9436 57.9122 34.2116 57.5603C34.2571 57.5035 34.2994 57.4444 34.3383 57.383C34.6309 56.9339 34.7864 56.4106 34.7864 55.876C34.7864 55.3414 34.6309 54.8182 34.3383 54.3691V54.3579C33.5641 54.3579 30.4354 54.3197 29.6952 54.2479C25.2414 53.8168 21.0097 52.1132 17.5139 49.3439C14.0181 46.5746 11.4086 42.8587 10.0023 38.6475C8.59593 34.4363 8.45328 29.9109 9.59162 25.6209C10.73 21.3308 13.1003 17.4607 16.4149 14.4804C19.7294 11.5001 23.8456 9.53791 28.2635 8.83203C32.6815 8.12614 37.2111 8.70695 41.3025 10.5039C45.3938 12.3009 48.8708 15.2368 51.3113 18.955C53.7518 22.6732 55.0507 27.0138 55.0504 31.4498V37.8366H57.5746C57.8115 37.8341 58.048 37.8191 58.2832 37.7917C59.9158 37.5989 61.4122 36.7947 62.4661 35.5438C63.52 34.2929 64.0516 32.6899 63.952 31.0631C63.8525 29.4363 63.1294 27.9088 61.9307 26.7933C60.732 25.6778 59.1485 25.0588 57.5044 25.063H57.5158Z"
            fill="url(#paint1_linear_5026_72706)" />
        <path
            d="M31.9796 11.7246C26.7229 11.7801 21.7005 13.8891 18.003 17.5935C14.3056 21.298 12.2317 26.2988 12.2317 31.51C12.2317 36.7212 14.3056 41.722 18.003 45.4265C21.7005 49.1309 26.7229 51.2399 31.9796 51.2954H51.9401V31.5111C51.9395 26.2636 49.8363 21.2312 46.0931 17.5206C42.3499 13.81 37.2733 11.7252 31.9796 11.7246ZM47.315 46.7151H31.9796C28.9453 46.716 25.979 45.8249 23.4557 44.1544C20.9324 42.484 18.9656 40.1093 17.8039 37.3306C16.6422 34.552 16.3379 31.4943 16.9295 28.5442C17.5211 25.5941 18.9819 22.8842 21.1273 20.7572C23.2727 18.6302 26.0062 17.1817 28.9821 16.5949C31.958 16.008 35.0427 16.3092 37.8459 17.4604C40.6492 18.6115 43.045 20.5609 44.7305 23.0619C46.416 25.563 47.3154 28.5033 47.315 31.5111V46.7151Z"
            fill="url(#paint2_linear_5026_72706)" />
        <path
            d="M31.9796 11.7246C26.7229 11.7801 21.7005 13.8891 18.003 17.5935C14.3056 21.298 12.2317 26.2988 12.2317 31.51C12.2317 36.7212 14.3056 41.722 18.003 45.4265C21.7005 49.1309 26.7229 51.2399 31.9796 51.2954H33.7635C30.1685 51.2954 26.6543 50.2387 23.6652 48.2588C20.676 46.2789 18.3463 43.4649 16.9706 40.1725C15.5948 36.8801 15.2349 33.2573 15.9362 29.7621C16.6376 26.2669 18.3687 23.0564 20.9108 20.5365C23.4528 18.0166 26.6915 16.3006 30.2174 15.6053C33.7433 14.9101 37.398 15.2669 40.7194 16.6307C44.0407 17.9944 46.8795 20.3038 48.8768 23.2669C50.874 26.23 51.9401 29.7136 51.9401 33.2773V31.5111C51.9395 26.2636 49.8363 21.2312 46.0931 17.5206C42.3499 13.81 37.2733 11.7252 31.9796 11.7246Z"
            fill="url(#paint3_linear_5026_72706)" />
        <path
            d="M31.9794 11.7246C31.6806 11.7246 31.3841 11.7358 31.0897 11.7471C35.7501 11.9746 40.1438 13.9698 43.3612 17.3196C46.5787 20.6694 48.3736 25.1174 48.3743 29.7427V47.7519H30.1978C25.5331 47.7518 21.047 45.974 17.6678 42.7864C14.2887 39.5987 12.2751 35.2453 12.0439 30.6269C12.0303 30.9209 12.0212 31.2149 12.0212 31.5111C12.0212 36.7582 14.124 41.7904 17.8669 45.5007C21.6098 49.211 26.6862 51.2954 31.9794 51.2954H51.9399V31.5111C51.9393 26.2636 49.8362 21.2312 46.093 17.5206C42.3498 13.81 37.2731 11.7252 31.9794 11.7246Z"
            fill="url(#paint4_linear_5026_72706)" />
        <path
            d="M31.9798 34.4999C33.6452 34.4999 34.9953 33.1615 34.9953 31.5107C34.9953 29.8598 33.6452 28.5215 31.9798 28.5215C30.3144 28.5215 28.9644 29.8598 28.9644 31.5107C28.9644 33.1615 30.3144 34.4999 31.9798 34.4999Z"
            fill="url(#paint5_linear_5026_72706)" />
        <path
            d="M24.0697 34.4999C25.7351 34.4999 27.0851 33.1615 27.0851 31.5107C27.0851 29.8598 25.7351 28.5215 24.0697 28.5215C22.4043 28.5215 21.0542 29.8598 21.0542 31.5107C21.0542 33.1615 22.4043 34.4999 24.0697 34.4999Z"
            fill="url(#paint6_linear_5026_72706)" />
        <path
            d="M39.8895 34.4999C41.5549 34.4999 42.905 33.1615 42.905 31.5107C42.905 29.8598 41.5549 28.5215 39.8895 28.5215C38.2241 28.5215 36.874 29.8598 36.874 31.5107C36.874 33.1615 38.2241 34.4999 39.8895 34.4999Z"
            fill="url(#paint7_linear_5026_72706)" />
    </g>
    <defs>
        <linearGradient id="paint0_linear_5026_72706" x1="29.666" y1="57.4729" x2="29.9039" y2="57.4729"
            gradientUnits="userSpaceOnUse">
            <stop stop-color="#27AAE1" />
            <stop offset="1" stop-color="#0058A9" />
        </linearGradient>
        <linearGradient id="paint1_linear_5026_72706" x1="8.89785e-05" y1="32.0018" x2="63.961" y2="32.0018"
            gradientUnits="userSpaceOnUse">
            <stop stop-color="#27AAE1" />
            <stop offset="1" stop-color="#0058A9" />
        </linearGradient>
        <linearGradient id="paint2_linear_5026_72706" x1="12.3519" y1="10.3983" x2="44.0556" y2="45.0999"
            gradientUnits="userSpaceOnUse">
            <stop stop-color="#006838" />
            <stop offset="1" stop-color="#16B14B" />
        </linearGradient>
        <linearGradient id="paint3_linear_5026_72706" x1="17.7308" y1="19.2784" x2="46.3446" y2="44.2768"
            gradientUnits="userSpaceOnUse">
            <stop stop-color="#16B14B" />
            <stop offset="1" stop-color="#006838" />
        </linearGradient>
        <linearGradient id="paint4_linear_5026_72706" x1="16.6418" y1="22.7321" x2="55.4203" y2="45.317"
            gradientUnits="userSpaceOnUse">
            <stop stop-color="#006838" />
            <stop offset="1" stop-color="#16B14B" />
        </linearGradient>
        <linearGradient id="paint5_linear_5026_72706" x1="31.9798" y1="34.4999" x2="31.9798" y2="28.5215"
            gradientUnits="userSpaceOnUse">
            <stop stop-color="#CD4D22" />
            <stop offset="1" stop-color="#F27227" />
        </linearGradient>
        <linearGradient id="paint6_linear_5026_72706" x1="24.0697" y1="34.4999" x2="24.0697" y2="28.5215"
            gradientUnits="userSpaceOnUse">
            <stop stop-color="#CD4D22" />
            <stop offset="1" stop-color="#F27227" />
        </linearGradient>
        <linearGradient id="paint7_linear_5026_72706" x1="39.8895" y1="34.4999" x2="39.8895" y2="28.5215"
            gradientUnits="userSpaceOnUse">
            <stop stop-color="#CD4D22" />
            <stop offset="1" stop-color="#F27227" />
        </linearGradient>
        <clipPath id="clip0_5026_72706">
            <rect width="64" height="64" fill="white" />
        </clipPath>
    </defs>
</svg>