<svg width="24" height="24" viewBox="0 0 24 24" fill="none" xmlns="http://www.w3.org/2000/svg">
<path d="M23.7188 16.7958C23.9063 16.9847 24 17.221 24 17.5044C24 17.7879 23.9063 18.0241 23.7188 18.2131L21.2344 20.717C21.0469 20.906 20.8125 21.0005 20.5313 21.0005C20.25 21.0005 20.0156 20.906 19.8281 20.717C18.9531 19.8981 18.0625 19.2682 17.1563 18.8273C16.7813 18.6698 16.5938 18.3706 16.5938 17.9296V14.8115C15.1563 14.3391 13.625 14.1029 12 14.1029C10.375 14.1029 8.84375 14.3391 7.40625 14.8115V17.9296C7.40625 18.4021 7.21875 18.717 6.84375 18.8745C5.84375 19.3469 4.95313 19.9611 4.17188 20.717C3.98438 20.906 3.75 21.0005 3.46875 21.0005C3.1875 21.0005 2.95313 20.906 2.76563 20.717L0.28125 18.2131C0.09375 18.0241 0 17.7879 0 17.5044C0 17.221 0.09375 16.9847 0.28125 16.7958C3.5625 13.6462 7.46875 12.0714 12 12.0714C13.875 12.0714 15.9531 12.5438 18.2344 13.4887C20.5156 14.4021 22.3438 15.5044 23.7188 16.7958ZM6.51563 5.50443V9.04773H5.01563V3.00049H11.0156V4.5123H7.5L12 9.04773L18 3.00049L18.9844 3.99261L12 11.0792L6.51563 5.50443Z" fill="white"/>
</svg>
