<svg width="24" height="24" viewBox="0 0 24 24" fill="none" xmlns="http://www.w3.org/2000/svg">
    <path
        d="M23.7188 16.7953C23.9063 16.9843 24 17.2205 24 17.5039C24 17.7874 23.9063 18.0236 23.7188 18.2126L21.2344 20.7165C21.0469 20.9055 20.8125 21 20.5313 21C20.25 21 20.0156 20.9055 19.8281 20.7165C18.9531 19.8976 18.0625 19.2677 17.1563 18.8268C16.7813 18.6693 16.5938 18.3701 16.5938 17.9291V14.811C15.1563 14.3386 13.625 14.1024 12 14.1024C10.375 14.1024 8.84375 14.3386 7.40625 14.811V17.9291C7.40625 18.4016 7.21875 18.7165 6.84375 18.874C5.84375 19.3465 4.95313 19.9606 4.17188 20.7165C3.98438 20.9055 3.75 21 3.46875 21C3.1875 21 2.95313 20.9055 2.76563 20.7165L0.28125 18.2126C0.09375 18.0236 0 17.7874 0 17.5039C0 17.2205 0.09375 16.9843 0.28125 16.7953C3.5625 13.6457 7.46875 12.0709 12 12.0709C13.875 12.0709 15.9531 12.5433 18.2344 13.4882C20.5156 14.4016 22.3438 15.5039 23.7188 16.7953ZM6.51563 5.50394V9.04724H5.01563V3H11.0156V4.51181H7.5L12 9.04724L18 3L18.9844 3.99213L12 11.0787L6.51563 5.50394Z"
        fill="white" fill-opacity="0.65" />
</svg>